# xmcd
#
# Track frame offsets:
# 150
# 11252
# 22735
# 34210
# 44022
# 60735
# 73942
# 90842
# 103505
# 117207
# 132362
# 145527
# 158207
# 174802
# 184945
# 198655
# 209522
# 219605
# 234140
# 245180
# 262037
# 274692
# 287410
# 295685
# 308552
# 325670
#
# Disc length: 4502 seconds
#
#
# Revision: 4
# Processed by: cddbd v1.5.1PL2 Copyright (c) Steve Scherf et al.
# Submitted via: FreeRIP 2.944 
#
DISCID=7211941a
DTITLE=Various Artist - Shades of Country 1
DYEAR=1994
DGENRE=Country
TTITLE0=Roger Miller - King Of The Road
TTITLE1=Kendalls - Heavens Just a Sin Away
TTITLE2=Patsy Cline - The Heart You Break May Be Your Own
TTITLE3=Ned Miller - From a Jack to a King
TTITLE4=J.J. Barrie - No Charge
TTITLE5=Gene Pitney - The Man Who Shot Liberty Valance
TTITLE6=Janie Fricke - It Ain't Easy Bein' Easy
TTITLE7=Eddy Raven - Who do You Know in California
TTITLE8=B.J. Thomas - Raindrops Keep Falling On My Head
TTITLE9=Roy Clarke - Yesterday When I was Young
TTITLE10=Johnny Paycheck - Take This Job and Show It
TTITLE11=Bellamy Brothers - Let Your Love Flow
TTITLE12=Merle Haggard - I Might As Well Just Stay Here And Drink
TTITLE13=Rick Nelson - Never Be Anyone Else But You
TTITLE14=Don Everly - Yesterday Just Passed My Way Again
TTITLE15=Billie Jo Spears - What I've Got In Mind
TTITLE16=Faron Young - Hello Walls
TTITLE17=Charley Pride - Next To You I Like Me
TTITLE18=Jim Croce - Time In A Bottle
TTITLE19=Tom Paxton - I Can't Help But Wonder Where I'm Bound
TTITLE20=Nancy Sinatra and Lee Hazlewood - Jackson
TTITLE21=Leroy Van Dyke - The Auctioneer
TTITLE22=Don Gibson - Blue Blue Day
TTITLE23=Johnny Cash - Folsom Prison Blues
TTITLE24=Ray Price - For The Good Times
TTITLE25=Crystal Gayle - Don't It Make My Brown Eyes Blue
EXTD=
EXTT0=
EXTT1=
EXTT2=
EXTT3=
EXTT4=
EXTT5=
EXTT6=
EXTT7=
EXTT8=
EXTT9=
EXTT10=
EXTT11=
EXTT12=
EXTT13=
EXTT14=
EXTT15=
EXTT16=
EXTT17=
EXTT18=
EXTT19=
EXTT20=
EXTT21=
EXTT22=
EXTT23=
EXTT24=
EXTT25=
PLAYORDER=
